<svg width="44" height="43" viewBox="0 0 44 43" fill="none" xmlns="http://www.w3.org/2000/svg">
<path d="M38.2133 35.3469C38.5827 34.9112 38.9355 34.4599 39.2707 33.9937L36.871 32.2922C34.5559 35.5119 31.2659 37.9133 27.4805 39.1465C23.695 40.3797 19.6119 40.3803 15.8261 39.1482C12.0403 37.916 8.74959 35.5156 6.43357 32.2965C4.11754 29.0775 2.89718 25.2082 2.95032 21.2523C3.00346 17.2964 4.32732 13.4608 6.72898 10.3042C9.13065 7.14769 12.4846 4.83523 16.3022 3.70381C20.1198 2.57238 24.2014 2.68112 27.9524 4.01418C31.7034 5.34723 34.9277 7.83494 37.1554 11.1148L39.6 9.47743C39.2775 9.00257 38.9369 8.54206 38.5793 8.09671C36.0778 4.98101 32.7453 2.60751 28.9459 1.25728C24.6036 -0.285955 19.8784 -0.411837 15.4589 0.897971C11.0395 2.20778 7.15668 4.88483 4.37635 8.53904C1.59603 12.1932 0.0634435 16.6337 0.00192702 21.2132C-0.0595895 25.7928 1.35317 30.2722 4.03436 33.9988C6.71554 37.7253 10.525 40.5043 14.9077 41.9307C19.2904 43.3571 24.0173 43.3564 28.3996 41.9288C32.2338 40.6796 35.629 38.3953 38.2133 35.3469Z" fill="#0B7637"/>
<path fill-rule="evenodd" clip-rule="evenodd" d="M25.0088 13.3448C26.3454 13.3448 27.4592 13.7248 28.3503 14.4848C29.2414 15.2448 29.6869 16.2678 29.6869 17.5539C29.6869 18.4308 29.4781 19.1762 29.0604 19.79C28.6427 20.4039 28.0858 20.8277 27.3896 21.0615V21.1054C28.1832 21.31 28.8446 21.7558 29.3736 22.4427C29.9027 23.1296 30.1672 23.9407 30.1672 24.8761C30.1672 26.3668 29.673 27.536 28.6845 28.3837C27.7098 29.2313 26.4846 29.6552 25.0088 29.6552C23.533 29.6552 22.3008 29.2313 21.3123 28.3837C20.3377 27.536 19.8504 26.3668 19.8504 24.8761C19.8504 23.9261 20.1149 23.115 20.644 22.4427C21.187 21.7558 21.8483 21.31 22.628 21.1054V21.0615C21.0965 20.4769 20.3307 19.3443 20.3307 17.6636C20.3307 16.3774 20.7763 15.3398 21.6673 14.5506C22.5723 13.7467 23.6861 13.3448 25.0088 13.3448ZM25.0088 15.5152C24.3823 15.5152 23.8671 15.7198 23.4634 16.129C23.0735 16.5236 22.8786 17.0497 22.8786 17.7074C22.8786 18.3505 23.0735 18.8912 23.4634 19.3297C23.8532 19.7535 24.3684 19.9654 25.0088 19.9654C25.6075 19.9654 26.1157 19.7462 26.5334 19.3077C26.9511 18.8693 27.1599 18.3359 27.1599 17.7074C27.1599 17.0643 26.9441 16.5382 26.5125 16.129C26.0948 15.7198 25.5936 15.5152 25.0088 15.5152ZM25.0088 22.2015C24.2848 22.2015 23.6722 22.45 23.171 22.9469C22.6837 23.4438 22.44 24.0795 22.44 24.8541C22.44 25.6434 22.6767 26.2718 23.1501 26.7395C23.6374 27.2072 24.257 27.441 25.0088 27.441C25.7467 27.441 26.3524 27.2072 26.8257 26.7395C27.313 26.2718 27.5567 25.6434 27.5567 24.8541C27.5567 24.0942 27.3061 23.4657 26.8049 22.9688C26.3176 22.4573 25.7189 22.2015 25.0088 22.2015Z" fill="#0B7637"/>
<path d="M11.719 29.2606V16.9401L8.79524 19.4612L7.33333 17.6416L11.9488 13.7394H14.2252V29.2606H11.719Z" fill="#0B7637"/>
<path d="M37.2752 21.5H32.6807V23.7361H37.2752V28.559H39.4054V23.7361H44V21.5H39.4054V16.677H37.2752V21.5Z" fill="#0B7637"/>
</svg>
