<svg viewBox="0 0 143 29" fill="none" xmlns="http://www.w3.org/2000/svg">
<path fill-rule="evenodd" clip-rule="evenodd" d="M108.026 4.43096C109.667 2.76825 111.743 1.49632 114.152 0.818208C115.162 0.530874 116.183 0.366136 117.189 0.3125C114.428 0.745417 109.892 2.59585 108.026 4.43096ZM115.672 5.584C110.869 6.94057 106.795 8.90746 105.032 10.5227C107.773 7.15693 117.48 2.17103 125.491 2.44672C124.076 1.63839 119.793 1.9487 114.959 3.31252C110.261 4.63711 106.518 6.53628 105.589 7.9571L105.603 7.92936C106.989 5.51205 114.09 0.939275 121.353 0.669249C120.072 0.343603 117.403 0.615613 114.443 1.4508C111.479 2.28598 109.055 3.45831 108.133 4.4046C107.104 5.44317 106.255 6.63397 105.603 7.92936C105.594 7.9452 105.585 7.96095 105.576 7.9766C105.553 8.01206 105.533 8.04721 105.514 8.08205L105.517 8.08971C105.038 9.06831 104.671 10.1052 104.431 11.1798C104.256 11.4216 104.147 11.6506 104.111 11.8629C104 12.5372 103.939 13.2267 103.924 13.9201L104.142 13.7133C104.807 13.1041 105.518 12.5257 106.268 11.974C107.561 10.9512 109.316 9.9053 111.308 8.94374C115.974 6.64134 121.358 5.11279 126.532 4.27381C124.222 3.90604 120.199 4.30829 115.672 5.584ZM108.855 24.7081C109.642 25.3973 110.502 25.9947 111.419 26.4888L111.42 26.4894C112.472 27.0564 113.6 27.4893 114.766 27.7728L114.742 27.766L114.767 27.7728C116.493 28.191 118.313 28.2832 120.142 27.9971C120.655 27.9196 121.216 27.7988 121.796 27.6352C123.957 27.026 125.574 26.0491 125.406 25.4552C125.342 25.2271 125.024 25.0883 124.534 25.0384C123.749 24.9578 122.52 25.1062 121.188 25.4818C119.027 26.0909 117.409 27.0679 117.578 27.6617C117.587 27.6911 117.6 27.7187 117.618 27.7448C117.632 27.7675 117.649 27.7891 117.668 27.8096C116.385 26.7053 122.236 22.7924 127.861 24.0758C128.163 23.7616 128.297 23.4743 128.228 23.2291C127.953 22.2522 124.545 22.3556 120.622 23.4628C116.698 24.57 113.738 26.2633 114.014 27.2403C114.071 27.4432 114.261 27.5989 114.564 27.7095C110.698 26.3256 123.429 19.3825 130.047 21.2333C130.143 21.0341 130.174 20.8426 130.124 20.6702C129.757 19.36 125.164 19.4711 119.913 20.9499C114.667 22.4324 110.694 24.7387 111.061 26.0488C111.088 26.1447 111.138 26.2324 111.21 26.3124C108.516 23.5962 124.603 16.8609 131.271 18.502C131.31 18.3487 131.306 18.2108 131.268 18.0729C130.832 16.5137 125.463 16.6669 119.21 18.4292C112.962 20.1952 108.277 22.8769 108.713 24.4361C108.74 24.5319 108.793 24.6238 108.858 24.7081L108.858 24.7081C106.361 21.674 124.797 14.0428 131.856 15.8357C131.868 15.7246 131.856 15.6173 131.829 15.5139C131.344 13.7938 125.393 13.97 118.502 15.9123C111.611 17.8546 106.437 20.8121 106.923 22.5283C106.945 22.6017 106.974 22.6732 107.014 22.74C104.738 19.0526 124.556 11.4817 131.886 12.958C131.377 11.146 125.064 11.3414 117.79 13.3909C110.857 15.3446 105.55 18.2832 105.513 20.1233C105.345 15.8766 124.909 8.90237 131.423 10.4334C130.903 8.58685 124.49 8.78223 117.083 10.8701C109.679 12.958 104.153 16.153 104.624 17.9918C104.86 18.8294 105.166 19.6288 105.544 20.3862H105.542C105.966 21.2559 106.479 22.068 107.064 22.8151L107.055 22.8031L107.044 22.7865L107.05 22.7949L107.057 22.8044L107.068 22.8195C107.607 23.509 108.208 24.1373 108.858 24.7081L108.855 24.7081ZM104.649 14.1419C98.465 19.7159 100.301 21.9379 104.106 23.0833C104.767 23.2672 105.57 23.3285 105.861 23.3324C106.152 23.3324 106.675 23.3324 106.687 23.1102C106.695 22.888 106.446 22.7386 106.136 22.6888C104.392 22.4206 100.752 21.6429 103.547 17.8005C106.343 13.9619 116.542 8.57937 126.465 7.79402C136.393 7.00485 138.037 11.0925 133.769 15.3563C134.202 15.84 134.749 15.4811 135.382 15.0652L135.383 15.065C135.517 14.977 135.655 14.8865 135.796 14.8008C150.848 4.96295 139.081 3.37311 129.758 4.5109C120.894 5.59506 110.836 8.56787 104.649 14.1419ZM9.08065 14.595C9.08065 14.0296 8.7509 13.8835 8.29434 13.8835H3.98864C3.52573 13.8835 3.20232 14.0296 3.20232 14.595V28.1386H0V15.9163C0 14.3853 0.221943 12.7464 2.77746 12.7464H9.49917C12.061 12.7464 12.2766 14.3853 12.2766 15.9163V28.1386H9.08065V14.595ZM27.912 28.1388L31.5075 15.0207C31.964 13.4517 32.6489 12.3463 34.4561 12.3463C36.4889 12.3463 36.9094 13.7374 37.4313 15.4642C37.4581 15.5527 37.4851 15.6421 37.5126 15.7322L41.1778 28.1388H37.798L36.4473 23.4697H30.6831L29.4022 28.1388H27.912ZM36.0224 21.9768L34.2722 15.9863C34.2124 15.7711 34.1689 15.5745 34.1303 15.4L34.1303 15.4L34.1302 15.3996L34.1302 15.3994C34.0094 14.8535 33.9368 14.5252 33.562 14.5252C33.1234 14.5252 33.0153 14.9928 32.8505 15.7062L32.8504 15.7066L32.8498 15.7091L32.8493 15.7114L32.8487 15.714C32.8258 15.813 32.8018 15.9167 32.7757 16.0245L31.1016 21.9768H36.0224ZM19.9322 15.9839L23.458 28.1364V28.1427H26.8379L23.1663 15.7362C23.1388 15.646 23.1117 15.5566 23.085 15.4681C22.563 13.7413 22.1426 12.3502 20.1098 12.3502C18.3025 12.3502 17.6177 13.4556 17.1611 15.0247L13.572 28.1427H15.0622L18.4421 16.022C18.4689 15.9114 18.4934 15.8051 18.5168 15.7038C18.6817 14.9904 18.7897 14.5228 19.2284 14.5228C19.6006 14.5228 19.6711 14.8466 19.7887 15.3859C19.8273 15.5632 19.871 15.7638 19.9322 15.9839ZM42.4746 28.1386V12.7463H45.6516V19.4483H51.4982V12.7463H54.7513V28.1386H51.4982V20.9411H45.6516V28.1386H42.4746ZM60.4934 13.8835H66.5747V12.7463H59.2823C56.7204 12.7463 56.5048 14.3853 56.5048 15.9163V25.4324C56.5048 27.4271 57.4306 28.1386 58.9589 28.1386H67.0059V26.9951H60.9183C60.132 26.9951 59.7071 26.6394 59.7071 25.9279V20.9411H65.3635V19.4419H59.7071V14.5949C59.7071 14.0296 60.0242 13.8835 60.4934 13.8835ZM72.6827 28.1386V13.8835H68.1741V12.7463H80.4507V13.8835H75.9421V28.1386H72.6827ZM82.5355 15.0207L78.94 28.1388H80.4366L81.7175 23.4697H87.4817L88.8324 28.1388H92.2123L88.547 15.7322C88.5195 15.6421 88.4925 15.5527 88.4657 15.4641C87.9438 13.7373 87.5233 12.3463 85.4906 12.3463C83.677 12.3463 82.9984 13.4517 82.5355 15.0207ZM85.3067 15.9863L87.0505 21.9768H82.1424L83.8165 16.0245C83.8413 15.9188 83.8642 15.8172 83.8861 15.72C84.0484 14.9989 84.155 14.5252 84.5964 14.5252C84.9744 14.5252 85.0456 14.8508 85.1639 15.3926C85.2024 15.5689 85.246 15.768 85.3067 15.9863Z" fill="white"/>
</svg>
